<svg width="98" height="23" viewBox="0 0 98 23" fill="none" xmlns="http://www.w3.org/2000/svg">
<path d="M19.34 11.452C19.34 13.564 18.932 15.448 18.116 17.104C17.324 18.736 16.22 20.02 14.804 20.956C13.412 21.892 11.828 22.36 10.052 22.36C8.276 22.36 6.68 21.892 5.264 20.956C3.872 20.02 2.768 18.736 1.952 17.104C1.16 15.448 0.764 13.564 0.764 11.452C0.764 9.34 1.16 7.468 1.952 5.836C2.768 4.18 3.872 2.884 5.264 1.948C6.68 0.987999 8.276 0.508 10.052 0.508C11.828 0.508 13.412 0.987999 14.804 1.948C16.22 2.884 17.324 4.18 18.116 5.836C18.932 7.468 19.34 9.34 19.34 11.452ZM14.48 11.452C14.48 9.532 14.06 7.972 13.22 6.772C12.404 5.548 11.348 4.936 10.052 4.936C8.708 4.936 7.628 5.548 6.812 6.772C5.996 7.972 5.588 9.532 5.588 11.452C5.588 13.372 5.996 14.932 6.812 16.132C7.628 17.332 8.708 17.932 10.052 17.932C11.348 17.932 12.404 17.332 13.22 16.132C14.06 14.932 14.48 13.372 14.48 11.452ZM38.0333 17.644V22H23.4173V17.644H28.5293V6.736C28.2413 7.096 27.7493 7.48 27.0533 7.888C26.3813 8.296 25.6373 8.644 24.8213 8.932C24.0293 9.22 23.3213 9.364 22.6973 9.364V4.864C23.1293 4.864 23.6453 4.732 24.2453 4.468C24.8693 4.18 25.4813 3.844 26.0813 3.46C26.7053 3.076 27.2333 2.704 27.6653 2.344C28.1213 1.96 28.4093 1.66 28.5293 1.444H33.4613V17.644H38.0333ZM44.9851 22V9.22H46.6051V22H44.9851ZM51.2809 12.208V22H49.6609V9.22H51.0289L58.8409 19.21V9.238H60.4609V22H58.9849L51.2809 12.208ZM72.7284 10.66H68.3184V22H66.6984V10.66H62.2884V9.22H72.7284V10.66ZM74.5691 22V9.22H80.0411C80.6051 9.22 81.1211 9.34 81.5891 9.58C82.0571 9.808 82.4651 10.12 82.8131 10.516C83.1611 10.9 83.4311 11.338 83.6231 11.83C83.8151 12.31 83.9111 12.802 83.9111 13.306C83.9111 13.894 83.7971 14.452 83.5691 14.98C83.3531 15.508 83.0411 15.958 82.6331 16.33C82.2371 16.702 81.7691 16.96 81.2291 17.104L84.3251 22H82.4891L79.5731 17.41H76.1891V22H74.5691ZM76.1891 15.97H80.0591C80.5031 15.97 80.8871 15.85 81.2111 15.61C81.5471 15.358 81.8051 15.028 81.9851 14.62C82.1771 14.212 82.2731 13.774 82.2731 13.306C82.2731 12.826 82.1651 12.388 81.9491 11.992C81.7331 11.584 81.4511 11.26 81.1031 11.02C80.7551 10.78 80.3711 10.66 79.9511 10.66H76.1891V15.97ZM91.5831 22.09C90.6831 22.09 89.8671 21.91 89.1351 21.55C88.4031 21.19 87.7671 20.704 87.2271 20.092C86.6991 19.468 86.2911 18.772 86.0031 18.004C85.7151 17.224 85.5711 16.426 85.5711 15.61C85.5711 14.758 85.7211 13.948 86.0211 13.18C86.3331 12.4 86.7591 11.71 87.2991 11.11C87.8511 10.498 88.4931 10.018 89.2251 9.67C89.9571 9.31 90.7551 9.13 91.6191 9.13C92.5191 9.13 93.3351 9.316 94.0671 9.688C94.7991 10.06 95.4291 10.558 95.9571 11.182C96.4851 11.806 96.8931 12.502 97.1811 13.27C97.4691 14.038 97.6131 14.824 97.6131 15.628C97.6131 16.48 97.4631 17.296 97.1631 18.076C96.8631 18.844 96.4371 19.534 95.8851 20.146C95.3451 20.746 94.7091 21.22 93.9771 21.568C93.2451 21.916 92.4471 22.09 91.5831 22.09ZM87.2091 15.61C87.2091 16.258 87.3111 16.888 87.5151 17.5C87.7311 18.1 88.0311 18.634 88.4151 19.102C88.7991 19.57 89.2611 19.942 89.8011 20.218C90.3411 20.494 90.9411 20.632 91.6011 20.632C92.2851 20.632 92.8971 20.488 93.4371 20.2C93.9771 19.912 94.4331 19.528 94.8051 19.048C95.1891 18.568 95.4771 18.028 95.6691 17.428C95.8731 16.828 95.9751 16.222 95.9751 15.61C95.9751 14.962 95.8671 14.338 95.6511 13.738C95.4471 13.138 95.1471 12.604 94.7511 12.136C94.3671 11.656 93.9051 11.284 93.3651 11.02C92.8371 10.744 92.2491 10.606 91.6011 10.606C90.9171 10.606 90.3051 10.75 89.7651 11.038C89.2251 11.314 88.7631 11.692 88.3791 12.172C88.0071 12.652 87.7191 13.192 87.5151 13.792C87.3111 14.38 87.2091 14.986 87.2091 15.61Z" fill="white"/>
</svg>
