<svg width="114" height="23" viewBox="0 0 114 23" fill="none" xmlns="http://www.w3.org/2000/svg">
<path d="M19.34 11.452C19.34 13.564 18.932 15.448 18.116 17.104C17.324 18.736 16.22 20.02 14.804 20.956C13.412 21.892 11.828 22.36 10.052 22.36C8.276 22.36 6.68 21.892 5.264 20.956C3.872 20.02 2.768 18.736 1.952 17.104C1.16 15.448 0.764 13.564 0.764 11.452C0.764 9.34 1.16 7.468 1.952 5.836C2.768 4.18 3.872 2.884 5.264 1.948C6.68 0.987999 8.276 0.508 10.052 0.508C11.828 0.508 13.412 0.987999 14.804 1.948C16.22 2.884 17.324 4.18 18.116 5.836C18.932 7.468 19.34 9.34 19.34 11.452ZM14.48 11.452C14.48 9.532 14.06 7.972 13.22 6.772C12.404 5.548 11.348 4.936 10.052 4.936C8.708 4.936 7.628 5.548 6.812 6.772C5.996 7.972 5.588 9.532 5.588 11.452C5.588 13.372 5.996 14.932 6.812 16.132C7.628 17.332 8.708 17.932 10.052 17.932C11.348 17.932 12.404 17.332 13.22 16.132C14.06 14.932 14.48 13.372 14.48 11.452ZM22.4813 22C22.4813 20.584 22.6373 19.324 22.9493 18.22C23.2853 17.116 23.8613 16.12 24.6773 15.232C25.4933 14.344 26.6453 13.48 28.1333 12.64C29.4533 11.944 30.5573 11.356 31.4453 10.876C32.3333 10.396 33.0053 9.94 33.4613 9.508C33.9413 9.052 34.1813 8.524 34.1813 7.924C34.1813 7.204 33.8933 6.592 33.3173 6.088C32.7413 5.56 31.9253 5.296 30.8693 5.296C29.7173 5.296 28.7213 5.572 27.8813 6.124C27.0653 6.676 26.3573 7.312 25.7573 8.032L22.6973 4.504C23.1293 4.048 23.7773 3.556 24.6413 3.028C25.5053 2.5 26.5373 2.044 27.7373 1.66C28.9373 1.276 30.2573 1.084 31.6973 1.084C34.1453 1.084 36.0413 1.66 37.3853 2.812C38.7533 3.94 39.4373 5.404 39.4373 7.204C39.4373 8.332 39.1733 9.292 38.6453 10.084C38.1413 10.852 37.5053 11.512 36.7373 12.064C35.9933 12.592 35.2733 13.06 34.5773 13.468C33.0413 14.236 31.8293 14.908 30.9413 15.484C30.0773 16.06 29.3813 16.78 28.8533 17.644H39.8333V22H22.4813ZM51.5635 9.292H53.0935L54.7855 13.738L56.4955 9.292H58.0255L55.8115 14.854L58.0075 20.128L62.3275 9.22H64.0915L58.7455 22H57.3415L54.8035 15.97L52.2475 22H50.8435L45.5155 9.22H47.2615L51.5995 20.128L53.7775 14.854L51.5635 9.292ZM70.4718 22.09C69.5718 22.09 68.7558 21.91 68.0238 21.55C67.2918 21.19 66.6558 20.704 66.1158 20.092C65.5878 19.468 65.1798 18.772 64.8918 18.004C64.6038 17.224 64.4598 16.426 64.4598 15.61C64.4598 14.758 64.6098 13.948 64.9098 13.18C65.2218 12.4 65.6478 11.71 66.1878 11.11C66.7398 10.498 67.3818 10.018 68.1138 9.67C68.8458 9.31 69.6438 9.13 70.5078 9.13C71.4078 9.13 72.2238 9.316 72.9558 9.688C73.6878 10.06 74.3178 10.558 74.8458 11.182C75.3738 11.806 75.7818 12.502 76.0698 13.27C76.3578 14.038 76.5018 14.824 76.5018 15.628C76.5018 16.48 76.3518 17.296 76.0518 18.076C75.7518 18.844 75.3258 19.534 74.7738 20.146C74.2338 20.746 73.5978 21.22 72.8658 21.568C72.1338 21.916 71.3358 22.09 70.4718 22.09ZM66.0978 15.61C66.0978 16.258 66.1998 16.888 66.4038 17.5C66.6198 18.1 66.9198 18.634 67.3038 19.102C67.6878 19.57 68.1498 19.942 68.6898 20.218C69.2298 20.494 69.8298 20.632 70.4898 20.632C71.1738 20.632 71.7858 20.488 72.3258 20.2C72.8658 19.912 73.3218 19.528 73.6938 19.048C74.0778 18.568 74.3658 18.028 74.5578 17.428C74.7618 16.828 74.8638 16.222 74.8638 15.61C74.8638 14.962 74.7558 14.338 74.5398 13.738C74.3358 13.138 74.0358 12.604 73.6398 12.136C73.2558 11.656 72.7938 11.284 72.2538 11.02C71.7258 10.744 71.1378 10.606 70.4898 10.606C69.8058 10.606 69.1938 10.75 68.6538 11.038C68.1138 11.314 67.6518 11.692 67.2678 12.172C66.8958 12.652 66.6078 13.192 66.4038 13.792C66.1998 14.38 66.0978 14.986 66.0978 15.61ZM78.7527 22V9.22H84.2247C84.7887 9.22 85.3047 9.34 85.7727 9.58C86.2407 9.808 86.6487 10.12 86.9967 10.516C87.3447 10.9 87.6147 11.338 87.8067 11.83C87.9987 12.31 88.0947 12.802 88.0947 13.306C88.0947 13.894 87.9807 14.452 87.7527 14.98C87.5367 15.508 87.2247 15.958 86.8167 16.33C86.4207 16.702 85.9527 16.96 85.4127 17.104L88.5087 22H86.6727L83.7567 17.41H80.3727V22H78.7527ZM80.3727 15.97H84.2427C84.6867 15.97 85.0707 15.85 85.3947 15.61C85.7307 15.358 85.9887 15.028 86.1687 14.62C86.3607 14.212 86.4567 13.774 86.4567 13.306C86.4567 12.826 86.3487 12.388 86.1327 11.992C85.9167 11.584 85.6347 11.26 85.2867 11.02C84.9387 10.78 84.5547 10.66 84.1347 10.66H80.3727V15.97ZM89.7547 15.52C89.7547 14.74 89.8867 13.978 90.1507 13.234C90.4267 12.478 90.8227 11.794 91.3387 11.182C91.8667 10.558 92.5087 10.066 93.2647 9.706C94.0207 9.334 94.8787 9.148 95.8387 9.148C96.9787 9.148 97.9567 9.412 98.7727 9.94C99.5887 10.456 100.195 11.122 100.591 11.938L99.3127 12.766C99.0607 12.226 98.7367 11.8 98.3407 11.488C97.9567 11.164 97.5367 10.936 97.0807 10.804C96.6367 10.672 96.1987 10.606 95.7667 10.606C95.0587 10.606 94.4287 10.75 93.8767 11.038C93.3367 11.326 92.8807 11.71 92.5087 12.19C92.1367 12.67 91.8547 13.21 91.6627 13.81C91.4827 14.398 91.3927 14.992 91.3927 15.592C91.3927 16.252 91.5007 16.888 91.7167 17.5C91.9447 18.112 92.2567 18.652 92.6527 19.12C93.0487 19.588 93.5167 19.96 94.0567 20.236C94.5967 20.512 95.1847 20.65 95.8207 20.65C96.2647 20.65 96.7207 20.572 97.1887 20.416C97.6567 20.26 98.0947 20.02 98.5027 19.696C98.9107 19.36 99.2347 18.928 99.4747 18.4L100.825 19.138C100.561 19.774 100.153 20.314 99.6007 20.758C99.0487 21.202 98.4307 21.538 97.7467 21.766C97.0747 21.994 96.4087 22.108 95.7487 22.108C94.8727 22.108 94.0687 21.922 93.3367 21.55C92.6047 21.166 91.9687 20.662 91.4287 20.038C90.9007 19.402 90.4867 18.694 90.1867 17.914C89.8987 17.122 89.7547 16.324 89.7547 15.52ZM102.852 22V9.238H104.472V16.294L111.06 9.22H112.806L107.676 14.854L113.094 22H111.276L106.65 15.826L104.472 18.094V22H102.852Z" fill="#F9EFCF"/>
</svg>
