<svg width="270" height="89" viewBox="0 0 270 89" fill="none" xmlns="http://www.w3.org/2000/svg">
<line y1="2" x2="270" y2="2" stroke="#F9EFCF" stroke-width="4"/>
<path d="M20.34 48.452C20.34 50.564 19.932 52.448 19.116 54.104C18.324 55.736 17.22 57.02 15.804 57.956C14.412 58.892 12.828 59.36 11.052 59.36C9.276 59.36 7.68 58.892 6.264 57.956C4.872 57.02 3.768 55.736 2.952 54.104C2.16 52.448 1.764 50.564 1.764 48.452C1.764 46.34 2.16 44.468 2.952 42.836C3.768 41.18 4.872 39.884 6.264 38.948C7.68 37.988 9.276 37.508 11.052 37.508C12.828 37.508 14.412 37.988 15.804 38.948C17.22 39.884 18.324 41.18 19.116 42.836C19.932 44.468 20.34 46.34 20.34 48.452ZM15.48 48.452C15.48 46.532 15.06 44.972 14.22 43.772C13.404 42.548 12.348 41.936 11.052 41.936C9.708 41.936 8.628 42.548 7.812 43.772C6.996 44.972 6.588 46.532 6.588 48.452C6.588 50.372 6.996 51.932 7.812 53.132C8.628 54.332 9.708 54.932 11.052 54.932C12.348 54.932 13.404 54.332 14.22 53.132C15.06 51.932 15.48 50.372 15.48 48.452ZM35.8293 50.504C37.3173 50.744 38.5173 51.464 39.4293 52.664C40.3653 53.84 40.8333 55.256 40.8333 56.912C40.8333 58.424 40.4493 59.732 39.6813 60.836C38.9133 61.94 37.8213 62.792 36.4053 63.392C35.0133 63.992 33.3693 64.292 31.4733 64.292C27.8253 64.292 25.0413 63.14 23.1213 60.836L25.8573 57.416C26.4813 58.208 27.2253 58.82 28.0893 59.252C28.9773 59.684 30.0573 59.9 31.3293 59.9C32.7933 59.9 33.9093 59.6 34.6773 59C35.4453 58.424 35.8293 57.548 35.8293 56.372C35.8293 55.124 35.3853 54.164 34.4973 53.492C33.6093 52.82 32.2653 52.484 30.4653 52.484H29.4573V48.884H30.5733C32.0373 48.884 33.1773 48.56 33.9933 47.912C34.8333 47.24 35.2533 46.388 35.2533 45.356C35.2533 44.396 34.9173 43.676 34.2453 43.196C33.5733 42.692 32.6973 42.44 31.6173 42.44C29.3853 42.44 27.6813 43.4 26.5053 45.32L23.4813 41.936C23.9853 41.216 24.6693 40.58 25.5333 40.028C26.4213 39.476 27.4293 39.044 28.5573 38.732C29.7093 38.42 30.9093 38.264 32.1573 38.264C33.7893 38.264 35.2173 38.528 36.4413 39.056C37.6893 39.584 38.6613 40.328 39.3573 41.288C40.0533 42.248 40.4013 43.364 40.4013 44.636C40.4013 45.596 40.2093 46.496 39.8253 47.336C39.4413 48.152 38.9013 48.848 38.2053 49.424C37.5333 49.976 36.7413 50.336 35.8293 50.504ZM51.5957 46.22H52.9637L58.1837 59H56.4557L54.9437 55.256H49.5797L48.0857 59H46.3577L51.5957 46.22ZM54.5837 53.996L52.2797 48.092L49.9037 53.996H54.5837ZM69.6994 55.706C69.6994 56.366 69.5314 56.942 69.1954 57.434C68.8594 57.926 68.4034 58.31 67.8274 58.586C67.2634 58.862 66.6394 59 65.9554 59H59.8894V46.22H66.2434C66.8434 46.22 67.3594 46.382 67.7914 46.706C68.2354 47.018 68.5714 47.426 68.7994 47.93C69.0394 48.422 69.1594 48.938 69.1594 49.478C69.1594 50.102 68.9974 50.69 68.6734 51.242C68.3614 51.782 67.9114 52.184 67.3234 52.448C68.0554 52.664 68.6314 53.066 69.0514 53.654C69.4834 54.23 69.6994 54.914 69.6994 55.706ZM61.5094 47.624V51.89H65.5774C66.1414 51.89 66.6094 51.686 66.9814 51.278C67.3654 50.858 67.5574 50.354 67.5574 49.766C67.5574 49.166 67.3774 48.662 67.0174 48.254C66.6694 47.834 66.2254 47.624 65.6854 47.624H61.5094ZM68.0614 55.418C68.0614 55.022 67.9714 54.656 67.7914 54.32C67.6234 53.984 67.3894 53.714 67.0894 53.51C66.8014 53.306 66.4654 53.204 66.0814 53.204H61.5094V57.596H65.9554C66.3514 57.596 66.7054 57.494 67.0174 57.29C67.3414 57.086 67.5934 56.822 67.7734 56.498C67.9654 56.162 68.0614 55.802 68.0614 55.418ZM77.1495 59.09C76.2495 59.09 75.4335 58.91 74.7015 58.55C73.9695 58.19 73.3335 57.704 72.7935 57.092C72.2655 56.468 71.8575 55.772 71.5695 55.004C71.2815 54.224 71.1375 53.426 71.1375 52.61C71.1375 51.758 71.2875 50.948 71.5875 50.18C71.8995 49.4 72.3255 48.71 72.8655 48.11C73.4175 47.498 74.0595 47.018 74.7915 46.67C75.5235 46.31 76.3215 46.13 77.1855 46.13C78.0855 46.13 78.9015 46.316 79.6335 46.688C80.3655 47.06 80.9955 47.558 81.5235 48.182C82.0515 48.806 82.4595 49.502 82.7475 50.27C83.0355 51.038 83.1795 51.824 83.1795 52.628C83.1795 53.48 83.0295 54.296 82.7295 55.076C82.4295 55.844 82.0035 56.534 81.4515 57.146C80.9115 57.746 80.2755 58.22 79.5435 58.568C78.8115 58.916 78.0135 59.09 77.1495 59.09ZM72.7755 52.61C72.7755 53.258 72.8775 53.888 73.0815 54.5C73.2975 55.1 73.5975 55.634 73.9815 56.102C74.3655 56.57 74.8275 56.942 75.3675 57.218C75.9075 57.494 76.5075 57.632 77.1675 57.632C77.8515 57.632 78.4635 57.488 79.0035 57.2C79.5435 56.912 79.9995 56.528 80.3715 56.048C80.7555 55.568 81.0435 55.028 81.2355 54.428C81.4395 53.828 81.5415 53.222 81.5415 52.61C81.5415 51.962 81.4335 51.338 81.2175 50.738C81.0135 50.138 80.7135 49.604 80.3175 49.136C79.9335 48.656 79.4715 48.284 78.9315 48.02C78.4035 47.744 77.8155 47.606 77.1675 47.606C76.4835 47.606 75.8715 47.75 75.3315 48.038C74.7915 48.314 74.3295 48.692 73.9455 49.172C73.5735 49.652 73.2855 50.192 73.0815 50.792C72.8775 51.38 72.7755 51.986 72.7755 52.61ZM90.7044 59.09C89.6844 59.09 88.8264 58.916 88.1304 58.568C87.4344 58.208 86.8764 57.728 86.4564 57.128C86.0364 56.516 85.7304 55.826 85.5384 55.058C85.3464 54.29 85.2504 53.498 85.2504 52.682V46.22H86.8704V52.682C86.8704 53.306 86.9304 53.918 87.0504 54.518C87.1824 55.106 87.3924 55.634 87.6804 56.102C87.9684 56.57 88.3584 56.942 88.8504 57.218C89.3424 57.494 89.9544 57.632 90.6864 57.632C91.4304 57.632 92.0484 57.494 92.5404 57.218C93.0324 56.93 93.4224 56.552 93.7104 56.084C93.9984 55.604 94.2024 55.07 94.3224 54.482C94.4544 53.894 94.5204 53.294 94.5204 52.682V46.22H96.1404V52.682C96.1404 53.546 96.0384 54.368 95.8344 55.148C95.6424 55.916 95.3304 56.594 94.8984 57.182C94.4664 57.77 93.9024 58.238 93.2064 58.586C92.5224 58.922 91.6884 59.09 90.7044 59.09ZM108.234 47.66H103.824V59H102.204V47.66H97.7943V46.22H108.234V47.66Z" fill="#F9EFCF"/>
</svg>
