<svg width="270" height="89" viewBox="0 0 270 89" fill="none" xmlns="http://www.w3.org/2000/svg">
<line y1="2" x2="270" y2="2" stroke="#F9EFCF" stroke-width="4"/>
<path d="M20.34 48.452C20.34 50.564 19.932 52.448 19.116 54.104C18.324 55.736 17.22 57.02 15.804 57.956C14.412 58.892 12.828 59.36 11.052 59.36C9.276 59.36 7.68 58.892 6.264 57.956C4.872 57.02 3.768 55.736 2.952 54.104C2.16 52.448 1.764 50.564 1.764 48.452C1.764 46.34 2.16 44.468 2.952 42.836C3.768 41.18 4.872 39.884 6.264 38.948C7.68 37.988 9.276 37.508 11.052 37.508C12.828 37.508 14.412 37.988 15.804 38.948C17.22 39.884 18.324 41.18 19.116 42.836C19.932 44.468 20.34 46.34 20.34 48.452ZM15.48 48.452C15.48 46.532 15.06 44.972 14.22 43.772C13.404 42.548 12.348 41.936 11.052 41.936C9.708 41.936 8.628 42.548 7.812 43.772C6.996 44.972 6.588 46.532 6.588 48.452C6.588 50.372 6.996 51.932 7.812 53.132C8.628 54.332 9.708 54.932 11.052 54.932C12.348 54.932 13.404 54.332 14.22 53.132C15.06 51.932 15.48 50.372 15.48 48.452ZM33.3453 63.572V58.208H22.8333V53.924L34.8933 38.444H38.1693V53.888H41.3373V58.208H38.1693V63.572H33.3453ZM27.6573 53.888H33.8853V45.752L27.6573 53.888ZM47.9344 52.52C47.9344 51.74 48.0664 50.978 48.3304 50.234C48.6064 49.478 49.0024 48.794 49.5184 48.182C50.0464 47.558 50.6884 47.066 51.4444 46.706C52.2004 46.334 53.0584 46.148 54.0184 46.148C55.1584 46.148 56.1364 46.412 56.9524 46.94C57.7684 47.456 58.3744 48.122 58.7704 48.938L57.4924 49.766C57.2404 49.226 56.9164 48.8 56.5204 48.488C56.1364 48.164 55.7164 47.936 55.2604 47.804C54.8164 47.672 54.3784 47.606 53.9464 47.606C53.2384 47.606 52.6084 47.75 52.0564 48.038C51.5164 48.326 51.0604 48.71 50.6884 49.19C50.3164 49.67 50.0344 50.21 49.8424 50.81C49.6624 51.398 49.5724 51.992 49.5724 52.592C49.5724 53.252 49.6804 53.888 49.8964 54.5C50.1244 55.112 50.4364 55.652 50.8324 56.12C51.2284 56.588 51.6964 56.96 52.2364 57.236C52.7764 57.512 53.3644 57.65 54.0004 57.65C54.4444 57.65 54.9004 57.572 55.3684 57.416C55.8364 57.26 56.2744 57.02 56.6824 56.696C57.0904 56.36 57.4144 55.928 57.6544 55.4L59.0044 56.138C58.7404 56.774 58.3324 57.314 57.7804 57.758C57.2284 58.202 56.6104 58.538 55.9264 58.766C55.2544 58.994 54.5884 59.108 53.9284 59.108C53.0524 59.108 52.2484 58.922 51.5164 58.55C50.7844 58.166 50.1484 57.662 49.6084 57.038C49.0804 56.402 48.6664 55.694 48.3664 54.914C48.0784 54.122 47.9344 53.324 47.9344 52.52ZM66.0753 59.09C65.1753 59.09 64.3593 58.91 63.6273 58.55C62.8953 58.19 62.2593 57.704 61.7193 57.092C61.1913 56.468 60.7833 55.772 60.4953 55.004C60.2073 54.224 60.0633 53.426 60.0633 52.61C60.0633 51.758 60.2133 50.948 60.5133 50.18C60.8253 49.4 61.2513 48.71 61.7913 48.11C62.3433 47.498 62.9853 47.018 63.7173 46.67C64.4493 46.31 65.2473 46.13 66.1113 46.13C67.0113 46.13 67.8273 46.316 68.5593 46.688C69.2913 47.06 69.9213 47.558 70.4493 48.182C70.9773 48.806 71.3853 49.502 71.6733 50.27C71.9613 51.038 72.1053 51.824 72.1053 52.628C72.1053 53.48 71.9553 54.296 71.6553 55.076C71.3553 55.844 70.9293 56.534 70.3773 57.146C69.8373 57.746 69.2013 58.22 68.4693 58.568C67.7373 58.916 66.9393 59.09 66.0753 59.09ZM61.7013 52.61C61.7013 53.258 61.8033 53.888 62.0073 54.5C62.2233 55.1 62.5233 55.634 62.9073 56.102C63.2913 56.57 63.7533 56.942 64.2933 57.218C64.8333 57.494 65.4333 57.632 66.0933 57.632C66.7773 57.632 67.3893 57.488 67.9293 57.2C68.4693 56.912 68.9253 56.528 69.2973 56.048C69.6813 55.568 69.9693 55.028 70.1613 54.428C70.3653 53.828 70.4673 53.222 70.4673 52.61C70.4673 51.962 70.3593 51.338 70.1433 50.738C69.9393 50.138 69.6393 49.604 69.2433 49.136C68.8593 48.656 68.3973 48.284 67.8573 48.02C67.3293 47.744 66.7413 47.606 66.0933 47.606C65.4093 47.606 64.7973 47.75 64.2573 48.038C63.7173 48.314 63.2553 48.692 62.8713 49.172C62.4993 49.652 62.2113 50.192 62.0073 50.792C61.8033 51.38 61.7013 51.986 61.7013 52.61ZM75.9762 49.208V59H74.3562V46.22H75.7242L83.5362 56.21V46.238H85.1562V59H83.6802L75.9762 49.208ZM97.4237 47.66H93.0137V59H91.3937V47.66H86.9837V46.22H97.4237V47.66ZM101.939 46.22H103.307L108.527 59H106.799L105.287 55.256H99.9235L98.4295 59H96.7015L101.939 46.22ZM104.927 53.996L102.623 48.092L100.247 53.996H104.927ZM108.931 52.52C108.931 51.74 109.063 50.978 109.327 50.234C109.603 49.478 109.999 48.794 110.515 48.182C111.043 47.558 111.685 47.066 112.441 46.706C113.197 46.334 114.055 46.148 115.015 46.148C116.155 46.148 117.133 46.412 117.949 46.94C118.765 47.456 119.371 48.122 119.767 48.938L118.489 49.766C118.237 49.226 117.913 48.8 117.517 48.488C117.133 48.164 116.713 47.936 116.257 47.804C115.813 47.672 115.375 47.606 114.943 47.606C114.235 47.606 113.605 47.75 113.053 48.038C112.513 48.326 112.057 48.71 111.685 49.19C111.313 49.67 111.031 50.21 110.839 50.81C110.659 51.398 110.569 51.992 110.569 52.592C110.569 53.252 110.677 53.888 110.893 54.5C111.121 55.112 111.433 55.652 111.829 56.12C112.225 56.588 112.693 56.96 113.233 57.236C113.773 57.512 114.361 57.65 114.997 57.65C115.441 57.65 115.897 57.572 116.365 57.416C116.833 57.26 117.271 57.02 117.679 56.696C118.087 56.36 118.411 55.928 118.651 55.4L120.001 56.138C119.737 56.774 119.329 57.314 118.777 57.758C118.225 58.202 117.607 58.538 116.923 58.766C116.251 58.994 115.585 59.108 114.925 59.108C114.049 59.108 113.245 58.922 112.513 58.55C111.781 58.166 111.145 57.662 110.605 57.038C110.077 56.402 109.663 55.694 109.363 54.914C109.075 54.122 108.931 53.324 108.931 52.52ZM131.244 47.66H126.834V59H125.214V47.66H120.804V46.22H131.244V47.66ZM140.591 48.902C140.291 48.566 139.829 48.26 139.205 47.984C138.581 47.708 137.885 47.57 137.117 47.57C136.133 47.57 135.407 47.756 134.939 48.128C134.471 48.5 134.237 49.01 134.237 49.658C134.237 50.114 134.357 50.474 134.597 50.738C134.837 51.002 135.203 51.218 135.695 51.386C136.199 51.554 136.835 51.728 137.603 51.908C138.491 52.1 139.259 52.334 139.907 52.61C140.555 52.886 141.053 53.258 141.401 53.726C141.749 54.182 141.923 54.794 141.923 55.562C141.923 56.378 141.719 57.05 141.311 57.578C140.903 58.106 140.345 58.496 139.637 58.748C138.941 59 138.155 59.126 137.279 59.126C135.287 59.126 133.553 58.526 132.077 57.326L132.851 55.958C133.115 56.222 133.469 56.486 133.913 56.75C134.369 57.014 134.885 57.236 135.461 57.416C136.049 57.584 136.667 57.668 137.315 57.668C138.227 57.668 138.935 57.506 139.439 57.182C139.943 56.846 140.195 56.36 140.195 55.724C140.195 55.244 140.051 54.86 139.763 54.572C139.487 54.284 139.073 54.044 138.521 53.852C137.969 53.66 137.297 53.468 136.505 53.276C135.641 53.06 134.915 52.826 134.327 52.574C133.739 52.31 133.295 51.968 132.995 51.548C132.707 51.128 132.563 50.582 132.563 49.91C132.563 49.094 132.761 48.404 133.157 47.84C133.553 47.276 134.099 46.85 134.795 46.562C135.491 46.274 136.277 46.13 137.153 46.13C138.005 46.13 138.779 46.262 139.475 46.526C140.183 46.79 140.807 47.144 141.347 47.588L140.591 48.902Z" fill="#F9EFCF"/>
</svg>
